<?xml version="1.0" standalone="no"?>
<!DOCTYPE svg PUBLIC "-//W3C//DTD SVG 20010904//EN"
 "http://www.w3.org/TR/2001/REC-SVG-20010904/DTD/svg10.dtd">
<svg version="1.0" xmlns="http://www.w3.org/2000/svg"
 width="176.000000pt" height="176.000000pt" viewBox="0 0 176.000000 176.000000"
 preserveAspectRatio="xMidYMid meet">
<metadata>
Created by potrace 1.11, written by Peter Selinger 2001-2013
</metadata>
<g transform="translate(0.000000,176.000000) scale(0.100000,-0.100000)"
fill="#000000" stroke="none">
<path d="M1518 1247 c-86 -45 -160 -85 -164 -89 -4 -5 -16 -8 -26 -8 -10 0
-18 -4 -18 -8 0 -5 -24 -19 -52 -32 -29 -13 -75 -37 -103 -53 -27 -16 -55 -30
-61 -31 -7 -1 -19 -8 -28 -15 -9 -7 -16 -10 -16 -7 0 4 -13 -2 -29 -13 -16
-12 -34 -21 -40 -21 -6 0 -11 -5 -11 -11 0 -5 -4 -8 -9 -4 -8 4 -19 -15 -26
-45 -1 -3 -6 -16 -12 -30 -14 -31 -38 -93 -38 -100 -1 -3 -9 -23 -19 -45 -10
-22 -22 -50 -27 -62 -5 -13 -13 -23 -18 -23 -9 0 -56 100 -53 113 1 4 -3 7 -9
7 -5 0 -7 5 -4 10 3 6 1 10 -5 10 -6 0 -8 5 -5 10 3 6 1 10 -5 10 -6 0 -9 4
-5 9 3 5 1 12 -5 16 -6 4 -8 11 -5 16 4 5 1 9 -4 9 -6 0 -11 9 -11 20 0 11 -4
20 -10 20 -5 0 -10 9 -10 19 0 11 -5 23 -12 27 -16 10 -388 16 -388 7 0 -5 62
-111 138 -238 l138 -230 220 3 c120 1 227 5 236 8 9 3 20 14 23 25 4 10 11 17
16 14 5 -4 9 -1 9 5 0 12 15 32 43 58 9 9 17 21 17 27 0 6 9 17 19 25 11 7 18
17 15 21 -2 5 5 13 16 19 11 6 20 17 20 25 0 8 8 20 18 27 9 7 25 24 33 38 9
14 29 39 45 55 16 17 29 34 29 38 0 5 8 14 18 21 9 7 17 17 17 22 0 5 21 32
47 59 26 27 41 45 33 41 -8 -4 -5 1 8 12 12 11 22 23 22 26 0 4 43 61 97 129
123 156 116 147 112 146 -2 0 -75 -37 -161 -82z"/>
<path d="M751 1194 c-44 -36 -44 -93 -1 -136 27 -27 36 -30 72 -25 57 8 83 36
83 93 0 38 -5 50 -28 70 -38 32 -86 32 -126 -2z"/>
<path d="M158 529 c-42 -24 -4 -59 83 -78 140 -31 279 -39 604 -36 165 2 309
5 320 8 11 2 43 7 70 11 114 15 205 44 205 66 0 15 -31 40 -48 39 -11 0 -12
-2 -4 -6 38 -15 -13 -49 -104 -68 -38 -8 -118 -19 -179 -25 -112 -11 -494 -15
-575 -6 -25 3 -72 8 -105 11 -90 9 -166 24 -207 42 -38 16 -49 37 -25 46 8 4
7 6 -3 6 -8 0 -23 -4 -32 -10z"/>
</g>
</svg>
